:SAMPLES-PER-SECOND 30
:FULLY-SPECIFIED
:DEGREES
333
root  30.4142 27.0324 -26.461 175.735 53.6054 147.958
RightUpLeg  -51.1714 -10.6371 7.21885
RightLeg  75.7046 -0.326682 -1.26523
RightFoot  -37.923 0.163139 0.852388
RightToes  10.2665 0.016731 0.0989047
Spine  12.7994 0.961607 -2.27683
Spine1  23.7619 4.29951 -7.85472
HEad  -16.195 -24.8237 35.7784
LeftShoulder1  0 -2.42657e-020 -4.95415e-022
LeftArm  -26.4306 6.48148 -69.3112
LeftForeArm  23.4771 -36.6575 -7.53896
LeftHand  -0.0678085 -7.91732 0.610429
RightShoulder  0 2.42657e-020 1.07489e-018
RightArm  -80.7326 20.3676 24.8214
RightForeArm  15.7818 54.6967 14.4601
RightHand  1.62623 22.5226 8.52634
LeftUpLeg  -62.9489 -2.42118 1.14083
LeftLeg  80.257 0.649182 2.68876
LeftFoot  -8.34983 -0.0278685 -0.381792
LeftToes  -21.4487 1.71452e-006 7.46813e-008
334
root  34.1028 27.8339 -27.9498 169.635 56.558 143.873
RightUpLeg  -37.6988 -10.1763 4.35497
RightLeg  68.72 -0.0231023 -0.204699
RightFoot  -35.0889 -0.0668386 0.166139
RightToes  0.493264 0.00120734 0.00467247
Spine  13.1704 1.77211 -2.49129
Spine1  24.2443 6.56288 -9.14479
HEad  -14.7816 -24.6437 34.8015
LeftShoulder1  0 -2.42657e-020 -4.95415e-022
LeftArm  -26.6755 7.79495 -69.9662
LeftForeArm  23.3429 -36.2658 -7.43089
LeftHand  -0.13456 -8.02177 1.55027
RightShoulder  0 2.42657e-020 1.07489e-018
RightArm  -76.5325 21.6776 28.068
RightForeArm  27.8609 59.3971 17.4213
RightHand  -0.234469 21.6678 -0.855384
LeftUpLeg  -66.6953 -3.85043 0.569129
LeftLeg  68.7054 -0.202275 -0.449186
LeftFoot  -8.57415 0.00804775 0.107346
LeftToes  -19.4337 1.71452e-006 7.46813e-008
335
root  38.0061 28.5201 -29.3073 164.974 59.1678 140.384
RightUpLeg  -24.673 -9.25471 2.22443
RightLeg  59.4129 0.378412 0.470583
RightFoot  -29.0198 -0.16096 -0.244393
RightToes  -10.7052 -0.0359198 -0.0982231
Spine  12.9419 2.71577 -2.48878
Spine1  23.7311 8.79129 -9.42437
HEad  -12.6115 -25.9876 35.3315
LeftShoulder1  0 -2.42657e-020 -4.95415e-022
LeftArm  -26.9841 8.85497 -71.2599
LeftForeArm  23.9776 -35.1643 -7.13284
LeftHand  -0.0968821 -8.04038 1.00934
RightShoulder  0 2.42657e-020 1.07489e-018
RightArm  -76.5628 24.2578 32.3041
RightForeArm  39.9153 56.9392 15.7716
RightHand  -1.23038 22.0757 -5.93305
LeftUpLeg  -68.0331 -4.28533 -0.106254
LeftLeg  51.979 -0.923083 -1.04374
LeftFoot  -6.97145 0.00972586 0.15966
LeftToes  -22.7038 1.71452e-006 7.46813e-008
336
root  42.1541 28.9966 -30.5639 160.365 63.3491 136.173
RightUpLeg  -12.4625 -4.27708 1.13344
RightLeg  48.5729 0.652477 0.607802
RightFoot  -18.2735 -0.09586 -0.218479
RightToes  -29.8992 -0.143227 -0.251265
Spine  12.4698 4.58509 -2.48076
Spine1  22.6639 12.9182 -9.32712
HEad  -11.3065 -28.3964 37.3807
LeftShoulder1  0 -2.42657e-020 -4.95415e-022
LeftArm  -26.6054 9.33041 -72.6851
LeftForeArm  23.0721 -34.4493 -6.94392
LeftHand  -0.0716827 -8.26833 0.62228
RightShoulder  0 2.42657e-020 1.07489e-018
RightArm  -80.1862 26.6145 36.0038
RightForeArm  45.4886 48.9127 11.6755
RightHand  -3.23535 21.6889 -16.4075
LeftUpLeg  -66.6109 -1.68334 -1.83418
LeftLeg  32.7992 -1.27511 -0.714266
LeftFoot  -5.22463 0.00308684 0.0676475
LeftToes  -27.4266 1.71452e-006 7.46813e-008
337
root  46.6059 29.0124 -31.8128 152.473 68.3111 130.093
RightUpLeg  -0.929404 2.01814 1.11397
RightLeg  40.8547 0.518573 0.368994
RightFoot  -4.13842 -0.00765439 0.165722
RightToes  -53.1493 -0.331092 -0.376751
Spine  13.2231 7.37889 -2.05431
Spine1  23.1772 19.9561 -9.81726
HEad  -11.378 -30.2196 40.0521
LeftShoulder1  0 -2.42657e-020 -4.95415e-022
LeftArm  -24.7105 7.18658 -73.3254
LeftForeArm  24.5674 -34.3596 -6.92029
LeftHand  -0.164374 -8.56296 1.82684
RightShoulder  0 2.42657e-020 1.07489e-018
RightArm  -88.0028 28.1562 36.2065
RightForeArm  50.018 35.022 7.07179
RightHand  -5.58754 21.1515 -28.9334
LeftUpLeg  -64.4367 2.63201 -4.67725
LeftLeg  21.7795 -3.07608 -1.00728
LeftFoot  -3.3551 0.00118665 0.0405088
LeftToes  -33.2789 1.71452e-006 7.46813e-008
338
root  50.8871 28.6336 -33.0343 140.337 72.8341 119.102
RightUpLeg  5.35456 6.46063 0.438776
RightLeg  40.9244 1.87616 1.40141
RightFoot  6.33161 -0.0232814 0.798384
RightToes  -48.2819 -0.287788 -0.35697
Spine  13.306 9.33472 -2.01838
Spine1  22.3082 24.872 -10.2676
HEad  -8.55634 -31.5708 40.9301
LeftShoulder1  0 -2.42657e-020 -4.95415e-022
LeftArm  -23.5522 6.29522 -73.5597
LeftForeArm  25.3589 -34.7506 -7.02286
LeftHand  -0.175587 -9.26299 1.79857
RightShoulder  0 2.42657e-020 1.07489e-018
RightArm  -92.8758 28.8375 31.9919
RightForeArm  51.7452 18.4294 3.33561
RightHand  -3.93333 22.2945 -19.4058
LeftUpLeg  -64.8048 5.40241 -5.65539
LeftLeg  22.5588 -2.92917 -1.00372
LeftFoot  -3.74738 5.106e-005 0.00155174
LeftToes  -34.0313 1.71452e-006 7.46813e-008
339
root  55.071 27.9771 -34.196 124.424 75.5172 104.433
RightUpLeg  7.24917 6.87843 -1.47619
RightLeg  48.2133 4.65936 4.52904
RightFoot  6.22902 -0.0559785 1.40615
RightToes  -50.9884 -0.31166 -0.368424
Spine  12.7676 9.8418 -2.38198
Spine1  20.9852 25.7634 -10.4082
HEad  -4.29651 -31.2126 39.898
LeftShoulder1  0 -2.42657e-020 -4.95415e-022
LeftArm  -22.2102 6.11998 -73.0881
LeftForeArm  25.4321 -35.6975 -7.27582
LeftHand  -0.194699 -9.58703 1.9529
RightShoulder  0 2.42657e-020 1.07489e-018
RightArm  -82.5925 29.6507 28.2793
RightForeArm  54.4512 5.43508 0.932838
RightHand  -0.889139 26.1405 -3.4593
LeftUpLeg  -63.7324 5.6845 -5.27041
LeftLeg  28.8375 -3.28264 -1.54392
LeftFoot  -4.67933 0.00496411 0.121489
LeftToes  -33.9607 1.71452e-006 7.46813e-008
340
root  59.0567 27.1531 -35.2968 115.614 75.5027 97.0933
RightUpLeg  5.23744 3.37545 -3.75483
RightLeg  60.498 2.60389 3.88389
RightFoot  2.98544 -0.0170245 1.03061
RightToes  -49.4238 -0.297794 -0.36194
Spine  11.7 9.10362 -3.10304
Spine1  18.6785 23.7802 -11.174
HEad  1.48964 -31.5608 38.8407
LeftShoulder1  0 -2.42657e-020 -4.95415e-022
LeftArm  -20.0215 4.63872 -71.763
LeftForeArm  25.3046 -35.864 -7.32097
LeftHand  -0.133643 -9.44413 1.24875
RightShoulder  0 2.42657e-020 1.07489e-018
RightArm  -63.8495 28.1961 32.8552
RightForeArm  50.3865 4.51749 0.778151
RightHand  4.85175 25.9659 21.199
LeftUpLeg  -62.4318 0.408694 -0.837284
LeftLeg  38.1758 -14.2798 -9.62415
LeftFoot  17.1246 0.769063 -5.10462
LeftToes  -46.0558 1.71452e-006 7.46813e-008
341
root  62.6979 26.7489 -36.009 111.707 72.3935 95.6404
RightUpLeg  -0.574158 -0.0559578 -5.34214
RightLeg  75.8487 -0.560436 -2.00265
RightFoot  -2.60128 0.0115886 0.888196
RightToes  -42.2624 -0.236804 -0.327542
Spine  12.0772 6.78912 -4.93143
Spine1  18.8191 18.8495 -12.9672
HEad  3.67427 -29.5594 40.9253
LeftShoulder1  0 -2.42657e-020 -4.95415e-022
LeftArm  -20.4874 -1.07787 -71.054
LeftForeArm  25.868 -34.3351 -6.91364
LeftHand  -0.0803346 -9.47704 0.59961
RightShoulder  0 2.42657e-020 1.07489e-018
RightArm  -67.7145 27.6395 41.9947
RightForeArm  58.8545 5.77372 0.983887
RightHand  4.21277 24.2319 19.8192
LeftUpLeg  -61.9546 -3.1365 -2.57581
LeftLeg  53.0544 -9.52828 -10.9288
LeftFoot  6.14221 0.0748204 -1.39449
LeftToes  -51.7117 1.71452e-006 7.46813e-008
342
root  65.9033 27.0602 -36.4984 107.623 70.4956 92.3252
RightUpLeg  -12.2665 -3.11849 -6.00083
RightLeg  88.3417 -0.402065 -5.4391
RightFoot  -8.94466 0.083391 1.4438
RightToes  -31.5241 -0.154556 -0.262418
Spine  12.5919 4.47132 -6.2584
Spine1  20.2029 13.3435 -12.5619
HEad  6.46069 -28.13 40.3951
LeftShoulder1  0 -2.42657e-020 -4.95415e-022
LeftArm  -23.2356 -7.39181 -73.9892
LeftForeArm  22.9184 -32.5107 -6.4478
LeftHand  0.12336 -8.75591 -1.98272
RightShoulder  0 2.42657e-020 1.07489e-018
RightArm  -61.6176 25.9932 49.3563
RightForeArm  54.7912 7.79061 1.35087
RightHand  0.850172 25.9151 4.06475
LeftUpLeg  -56.7005 -1.21419 -6.55642
LeftLeg  56.7311 -9.79506 -12.7531
LeftFoot  -1.17547 0.00505354 0.492617
LeftToes  -53.2779 1.71452e-006 7.46813e-008
343
root  68.9321 27.9133 -36.5824 104.14 70.9052 89.1273
RightUpLeg  -25.2063 -6.40363 -3.5918
RightLeg  92.5356 -0.00993312 -6.32098
RightFoot  -14.145 0.172954 1.77159
RightToes  -26.2804 -0.119164 -0.225301
Spine  12.4183 2.6445 -5.8971
Spine1  20.6195 8.62605 -10.7178
HEad  11.7123 -25.6464 36.1537
LeftShoulder1  0 -2.42657e-020 -4.95415e-022
LeftArm  -26.2614 -11.4154 -78.7673
LeftForeArm  20.1573 -30.0781 -5.85553
LeftHand  0.286236 -7.04983 -5.0191
RightShoulder  0 2.42657e-020 1.07489e-018
RightArm  -54.4017 22.4854 56.3068
RightForeArm  47.6748 11.6609 2.06324
RightHand  0.0468483 22.1419 0.609614
LeftUpLeg  -49.4834 -0.588051 -6.62754
LeftLeg  55.0939 -9.87853 -12.1425
LeftFoot  -5.82855 0.0827158 1.6247
LeftToes  -53.5397 1.71452e-006 7.46813e-008
344
root  71.9623 29.2116 -36.4344 101.47 70.9969 86.9771
RightUpLeg  -36.4763 -8.46082 -0.959073
RightLeg  88.3256 -0.35464 -4.92129
RightFoot  -16.4248 0.117745 1.19343
RightToes  -25.7649 -0.115871 -0.22148
Spine  12.075 0.715875 -5.25188
Spine1  20.8325 3.4084 -8.80874
HEad  16.7701 -22.6827 31.6736
LeftShoulder1  0 -2.42657e-020 -4.95415e-022
LeftArm  -27.2184 -11.8567 -82.0877
LeftForeArm  18.4239 -30.3274 -5.91446
LeftHand  0.389539 -6.52159 -7.20678
RightShoulder  0 2.42657e-020 1.07489e-018
RightArm  -49.7496 18.3423 62.5884
RightForeArm  44.9856 14.7819 2.64673
RightHand  0.290701 22.8146 1.8112
LeftUpLeg  -39.4466 -2.78898 -5.9408
LeftLeg  47.8496 -10.1911 -9.75859
LeftFoot  -6.94314 0.0964336 1.58951
LeftToes  -52.9267 1.71452e-006 7.46813e-008
345
root  75.131 30.5314 -36.0198 93.4653 72.6643 79.9885
RightUpLeg  -43.4903 -6.79793 2.68881
RightLeg  76.6711 -1.26029 -4.38891
RightFoot  -17.7569 0.0799975 0.889695
RightToes  -23.6533 -0.102747 -0.205527
Spine  11.6768 -0.289546 -4.17727
Spine1  20.6349 0.108687 -6.57615
HEad  21.3154 -19.5487 28.5842
LeftShoulder1  0 -2.42657e-020 -4.95415e-022
LeftArm  -28.7873 -9.86413 -84.7006
LeftForeArm  16.0819 -32.243 -6.37973
LeftHand  0.465479 -6.42321 -8.66042
RightShoulder  0 2.42657e-020 1.07489e-018
RightArm  -42.857 13.0194 66.2981
RightForeArm  41.8273 15.7458 2.83338
RightHand  0.435354 23.6938 2.44586
LeftUpLeg  -29.1653 -4.95206 -3.81987
LeftLeg  40.9215 -9.15215 -6.89924
LeftFoot  -4.87038 0.0301415 0.708731
LeftToes  -52.5489 1.71452e-006 7.46813e-008
346
root  78.3954 31.6792 -35.5031 85.1904 73.5707 72.6104
RightUpLeg  -46.2186 -5.88625 5.02567
RightLeg  59.3943 -3.37983 -5.0237
RightFoot  -16.6235 0.124884 1.23241
RightToes  -23.2025 -0.100021 -0.202059
Spine  11.0937 -1.28725 -3.43208
Spine1  20.2101 -3.17813 -4.56901
HEad  24.2741 -17.964 25.4866
LeftShoulder1  0 -2.42657e-020 -4.95415e-022
LeftArm  -33.1745 -7.36793 -86.6565
LeftForeArm  15.4159 -33.7627 -6.7638
LeftHand  0.504686 -5.02783 -11.8431
RightShoulder  0 2.42657e-020 1.07489e-018
RightArm  -40.1236 7.14101 68.82
RightForeArm  44.083 16.1515 2.90765
RightHand  0.696274 25.1476 3.49179
LeftUpLeg  -19.83 -4.8632 -2.30872
LeftLeg  35.5001 -12.1724 -7.45797
LeftFoot  -0.07711 -0.000254216 -0.377776
LeftToes  -48.5408 1.71452e-006 7.46813e-008
347
root  81.8124 32.4316 -35.0325 85.0949 73.6948 73.5882
RightUpLeg  -45.6261 -7.9938 5.86886
RightLeg  38.7717 -7.04578 -4.94292
RightFoot  -14.505 0.194185 1.90344
RightToes  -20.3068 -0.0831757 -0.179285
Spine  9.96457 -2.31869 -3.33772
Spine1  18.8967 -5.93325 -4.08337
HEad  27.1118 -19.4135 24.1902
LeftShoulder1  0 -2.42657e-020 -4.95415e-022
LeftArm  -38.7622 -3.10338 -87.5319
LeftForeArm  12.6548 -36.3753 -7.45718
LeftHand  0.543434 -5.237 -12.2265
RightShoulder  0 2.42657e-020 1.07489e-018
RightArm  -36.9945 -2.55907 70.4552
RightForeArm  43.7773 17.3802 3.14422
RightHand  0.659522 25.4396 3.29202
LeftUpLeg  -11.144 -4.26207 -0.75726
LeftLeg  31.8896 -21.1468 -10.9551
LeftFoot  5.47423 0.139157 -2.91013
LeftToes  -48.7751 1.71452e-006 7.46813e-008
